<?xml version="1.0" encoding="utf-8"?>
<!-- Generator: Adobe Illustrator 18.1.1, SVG Export Plug-In . SVG Version: 6.00 Build 0)  -->
<svg version="1.1" id="Layer_1" xmlns="http://www.w3.org/2000/svg" xmlns:xlink="http://www.w3.org/1999/xlink" x="0px" y="0px"
	 viewBox="0 133.9 612 524.1" enable-background="new 0 133.9 612 524.1" xml:space="preserve">
<g>
	<g>
		<path fill="#FFFFFF" d="M38.6,657.1H0v-67h38.6v11.6H14.2v14.7h22.7V628H14.2v17.2h24.4V657.1z"/>
		<path fill="#FFFFFF" d="M85.4,657.1v-67h14.2v55.3h27.2v11.7H85.4z"/>
		<path fill="#FFFFFF" d="M171.2,657.1v-67h14.2v55.3h27.2v11.7H171.2z"/>
		<path fill="#FFFFFF" d="M257.2,657.1v-67h14.2v67H257.2z"/>
		<path fill="#FFFFFF" d="M367.3,611c0,7.3-2.3,12.7-6.7,16.6c-4.6,3.8-10.9,5.7-19.2,5.7h-6.1v23.8h-14.2v-67h21.4
			c8.1,0,14.3,1.7,18.5,5.2C365.2,598.9,367.3,604.1,367.3,611z M335.2,621.6h4.7c4.3,0,7.6-0.9,9.8-2.6c2.2-1.7,3.3-4.2,3.3-7.6
			s-0.9-5.7-2.7-7.4c-1.8-1.6-4.7-2.4-8.6-2.4h-6.5v19.9H335.2z"/>
		<path fill="#FFFFFF" d="M438.7,657.1h-14.2v-55.2h-18.2v-11.8h50.6v11.8h-18.2L438.7,657.1L438.7,657.1z"/>
		<path fill="#FFFFFF" d="M500,657.1v-67h14.2v67H500z"/>
		<path fill="#FFFFFF" d="M592.4,600.9c-5.3,0-9.5,2.1-12.5,6.1s-4.4,9.6-4.4,16.8c0,15,5.6,22.4,16.8,22.4c4.7,0,10.4-1.2,17.1-3.6
			v11.9c-5.5,2.3-11.6,3.5-18.4,3.5c-9.8,0-17.2-2.9-22.3-8.9c-5.2-6-7.7-14.4-7.7-25.5c0-6.9,1.3-13.1,3.8-18.3
			c2.5-5.2,6.2-9.2,10.9-12c4.8-2.8,10.3-4.2,16.7-4.2c6.5,0,13,1.6,19.6,4.8l-4.6,11.6c-2.5-1.2-5-2.3-7.6-3.1
			C597.3,601.4,594.8,600.9,592.4,600.9z"/>
	</g>
	<g>
		<path fill="#FFFFFF" d="M246.7,513.9c-49.2,0-131.8-24.7-131.8-190c0-64.7,12.7-113.8,37.7-146c22.3-28.8,54.9-44,94.1-44
			c49.6,0,111.2,25,164.6,67.1c62,48.8,84.1,95.5,84.1,122.9c0,27.5-22.1,74.2-84.1,122.9C357.9,488.9,296.3,513.9,246.7,513.9z
			 M246.7,158c-89.1,0-107.8,90.3-107.8,165.9c0,75.8,18.7,165.9,107.8,165.9c101.1,0,224.7-111.1,224.7-165.9S347.8,158,246.7,158z
			"/>
	</g>
</g>
</svg>
